<svg xmlns="http://www.w3.org/2000/svg" xmlns:xlink="http://www.w3.org/1999/xlink" version="1.1" style="background-color: #e6e6e6; width: 365px;" viewBox="0 -300 365 300" preserveAspectRatio="none">
  <polyline fill="none" stroke="#ff8800" stroke-width="3" points="0,-280 1,-278 2,-278 3,-278 4,-272 5,-264 6,-250 7,-243 8,-232 9,-222 10,-220 11,-218 12,-212 13,-205 14,-199 15,-199 16,-199 17,-191 18,-188 19,-187 20,-180 21,-174 22,-174 23,-174 24,-174 25,-174 26,-169 27,-165 28,-150 29,-132 30,-132 31,-106 32,-99 33,-75 34,-75 35,-71 36,-62 37,-62 38,-62 39,-58 40,-49 41,-49 42,-49 43,-48 44,-48 45,-48 46,-48 47,-45 48,-40 49,-39 50,-30 51,-30 52,-30 53,-30 54,-30 55,-29 56,-25 57,-23 58,-23 59,-23 60,-23 61,-23 62,-23 63,-23 64,-23 65,-23 66,-23 67,-23 68,-23 69,-23 70,-23 71,-23 72,-23 73,-23 74,-23 75,-23 76,-23 77,-21 78,-19 79,-17 80,-16 81,-14 82,-14 83,-14 84,-10 85,-6 86,-4 87,-1 88,-1 89,-1 90,-1 91,0 92,0 93,0 94,0 95,0 96,0" />
  <line x1="0" y1="0" x2="365" y2="0" style="stroke:grey;stroke-width:1" />
  <line x1="0" y1="-25" x2="365" y2="-25" style="stroke:grey;stroke-width:1" />
  <line x1="0" y1="-50" x2="365" y2="-50" style="stroke:grey;stroke-width:1" />
  <line x1="0" y1="-75" x2="365" y2="-75" style="stroke:grey;stroke-width:1" />
  <line x1="0" y1="-100" x2="365" y2="-100" style="stroke:grey;stroke-width:1" />
  <line x1="0" y1="-125" x2="365" y2="-125" style="stroke:grey;stroke-width:1" />
  <line x1="0" y1="-150" x2="365" y2="-150" style="stroke:grey;stroke-width:1" />
  <line x1="0" y1="-175" x2="365" y2="-175" style="stroke:grey;stroke-width:1" />
  <line x1="0" y1="-200" x2="365" y2="-200" style="stroke:grey;stroke-width:1" />
  <line x1="0" y1="-225" x2="365" y2="-225" style="stroke:grey;stroke-width:1" />
  <line x1="0" y1="-250" x2="365" y2="-250" style="stroke:grey;stroke-width:1" />
  <line x1="0" y1="-275" x2="365" y2="-275" style="stroke:grey;stroke-width:1" />
  <line x1="0" y1="-300" x2="365" y2="-300" style="stroke:grey;stroke-width:1" />
</svg>