<svg xmlns="http://www.w3.org/2000/svg" xmlns:xlink="http://www.w3.org/1999/xlink" version="1.1" style="background-color: #e6e6e6; width: 365px;" viewBox="0 -675 365 125" preserveAspectRatio="none">
  <polyline fill="none" stroke="#ff8800" stroke-width="3" points="0,-649 1,-649 2,-649 3,-649 4,-649 5,-649 6,-649 7,-649 8,-649 9,-650 10,-650 11,-650 12,-650 13,-651 14,-651 15,-651 16,-651 17,-651 18,-652 19,-652 20,-652 21,-652 22,-652 23,-652 24,-652 25,-652 26,-652 27,-653 28,-653 29,-653 30,-653 31,-653 32,-653 33,-653 34,-653 35,-653 36,-653 37,-653 38,-653 39,-653 40,-653 41,-654 42,-654 43,-654 44,-654 45,-654 46,-654 47,-654 48,-654 49,-655 50,-655 51,-655 52,-655 53,-655 54,-655 55,-655 56,-655 57,-655 58,-655 59,-655 60,-655 61,-655 62,-656 63,-656 64,-656 65,-656 66,-656 67,-656 68,-656 69,-656 70,-656 71,-656 72,-656 73,-656 74,-656 75,-657 76,-657 77,-657 78,-657 79,-657 80,-657 81,-657 82,-657 83,-657 84,-657 85,-657 86,-658 87,-658 88,-658 89,-658 90,-659 91,-659 92,-659 93,-659 94,-660 95,-660 96,-661 97,-661 98,-651 99,-651 100,-651 101,-651 102,-651 103,-651 104,-632 105,-592" />
  <line x1="0" y1="0" x2="365" y2="0" style="stroke:grey;stroke-width:1" />
  <line x1="0" y1="-25" x2="365" y2="-25" style="stroke:grey;stroke-width:1" />
  <line x1="0" y1="-50" x2="365" y2="-50" style="stroke:grey;stroke-width:1" />
  <line x1="0" y1="-75" x2="365" y2="-75" style="stroke:grey;stroke-width:1" />
  <line x1="0" y1="-100" x2="365" y2="-100" style="stroke:grey;stroke-width:1" />
  <line x1="0" y1="-125" x2="365" y2="-125" style="stroke:grey;stroke-width:1" />
  <line x1="0" y1="-150" x2="365" y2="-150" style="stroke:grey;stroke-width:1" />
  <line x1="0" y1="-175" x2="365" y2="-175" style="stroke:grey;stroke-width:1" />
  <line x1="0" y1="-200" x2="365" y2="-200" style="stroke:grey;stroke-width:1" />
  <line x1="0" y1="-225" x2="365" y2="-225" style="stroke:grey;stroke-width:1" />
  <line x1="0" y1="-250" x2="365" y2="-250" style="stroke:grey;stroke-width:1" />
  <line x1="0" y1="-275" x2="365" y2="-275" style="stroke:grey;stroke-width:1" />
  <line x1="0" y1="-300" x2="365" y2="-300" style="stroke:grey;stroke-width:1" />
  <line x1="0" y1="-325" x2="365" y2="-325" style="stroke:grey;stroke-width:1" />
  <line x1="0" y1="-350" x2="365" y2="-350" style="stroke:grey;stroke-width:1" />
  <line x1="0" y1="-375" x2="365" y2="-375" style="stroke:grey;stroke-width:1" />
  <line x1="0" y1="-400" x2="365" y2="-400" style="stroke:grey;stroke-width:1" />
  <line x1="0" y1="-425" x2="365" y2="-425" style="stroke:grey;stroke-width:1" />
  <line x1="0" y1="-450" x2="365" y2="-450" style="stroke:grey;stroke-width:1" />
  <line x1="0" y1="-475" x2="365" y2="-475" style="stroke:grey;stroke-width:1" />
  <line x1="0" y1="-500" x2="365" y2="-500" style="stroke:grey;stroke-width:1" />
  <line x1="0" y1="-525" x2="365" y2="-525" style="stroke:grey;stroke-width:1" />
  <line x1="0" y1="-550" x2="365" y2="-550" style="stroke:grey;stroke-width:1" />
  <line x1="0" y1="-575" x2="365" y2="-575" style="stroke:grey;stroke-width:1" />
  <line x1="0" y1="-600" x2="365" y2="-600" style="stroke:grey;stroke-width:1" />
  <line x1="0" y1="-625" x2="365" y2="-625" style="stroke:grey;stroke-width:1" />
  <line x1="0" y1="-650" x2="365" y2="-650" style="stroke:grey;stroke-width:1" />
  <line x1="0" y1="-675" x2="365" y2="-675" style="stroke:grey;stroke-width:1" />
</svg>