<svg xmlns="http://www.w3.org/2000/svg" xmlns:xlink="http://www.w3.org/1999/xlink" version="1.1" style="background-color: #e6e6e6; width: 365px;" viewBox="0 -650 365 50" preserveAspectRatio="none">
  <polyline fill="none" stroke="#ff8800" stroke-width="3" points="0,-649 1,-649 2,-649 3,-649 4,-649 5,-649 6,-649 7,-649 8,-649" />
  <line x1="0" y1="0" x2="365" y2="0" style="stroke:grey;stroke-width:1" />
  <line x1="0" y1="-25" x2="365" y2="-25" style="stroke:grey;stroke-width:1" />
  <line x1="0" y1="-50" x2="365" y2="-50" style="stroke:grey;stroke-width:1" />
  <line x1="0" y1="-75" x2="365" y2="-75" style="stroke:grey;stroke-width:1" />
  <line x1="0" y1="-100" x2="365" y2="-100" style="stroke:grey;stroke-width:1" />
  <line x1="0" y1="-125" x2="365" y2="-125" style="stroke:grey;stroke-width:1" />
  <line x1="0" y1="-150" x2="365" y2="-150" style="stroke:grey;stroke-width:1" />
  <line x1="0" y1="-175" x2="365" y2="-175" style="stroke:grey;stroke-width:1" />
  <line x1="0" y1="-200" x2="365" y2="-200" style="stroke:grey;stroke-width:1" />
  <line x1="0" y1="-225" x2="365" y2="-225" style="stroke:grey;stroke-width:1" />
  <line x1="0" y1="-250" x2="365" y2="-250" style="stroke:grey;stroke-width:1" />
  <line x1="0" y1="-275" x2="365" y2="-275" style="stroke:grey;stroke-width:1" />
  <line x1="0" y1="-300" x2="365" y2="-300" style="stroke:grey;stroke-width:1" />
  <line x1="0" y1="-325" x2="365" y2="-325" style="stroke:grey;stroke-width:1" />
  <line x1="0" y1="-350" x2="365" y2="-350" style="stroke:grey;stroke-width:1" />
  <line x1="0" y1="-375" x2="365" y2="-375" style="stroke:grey;stroke-width:1" />
  <line x1="0" y1="-400" x2="365" y2="-400" style="stroke:grey;stroke-width:1" />
  <line x1="0" y1="-425" x2="365" y2="-425" style="stroke:grey;stroke-width:1" />
  <line x1="0" y1="-450" x2="365" y2="-450" style="stroke:grey;stroke-width:1" />
  <line x1="0" y1="-475" x2="365" y2="-475" style="stroke:grey;stroke-width:1" />
  <line x1="0" y1="-500" x2="365" y2="-500" style="stroke:grey;stroke-width:1" />
  <line x1="0" y1="-525" x2="365" y2="-525" style="stroke:grey;stroke-width:1" />
  <line x1="0" y1="-550" x2="365" y2="-550" style="stroke:grey;stroke-width:1" />
  <line x1="0" y1="-575" x2="365" y2="-575" style="stroke:grey;stroke-width:1" />
  <line x1="0" y1="-600" x2="365" y2="-600" style="stroke:grey;stroke-width:1" />
  <line x1="0" y1="-625" x2="365" y2="-625" style="stroke:grey;stroke-width:1" />
  <line x1="0" y1="-650" x2="365" y2="-650" style="stroke:grey;stroke-width:1" />
</svg>