<svg xmlns="http://www.w3.org/2000/svg" xmlns:xlink="http://www.w3.org/1999/xlink" version="1.1" style="background-color: #e6e6e6; width: 365px;" viewBox="0 -25 365 25" preserveAspectRatio="none">
  <polyline fill="none" stroke="#ff8800" stroke-width="3" points="0,-1.705 1,-1.705 2,-1.705 3,-1.705 4,-1.705 5,-1.705 6,-1.706 7,-1.706 8,-1.706 9,-1.705 10,-1.705 11,-1.705 12,-1.705 13,-1.705 14,-1.705 15,-1.705 16,-1.705 17,-1.705 18,-1.705 19,-1.705 20,-1.705 21,-1.705 22,-1.705 23,-1.705 24,-1.705 25,-1.705 26,-1.704 27,-1.704 28,-1.704 29,-1.704 30,-1.704 31,-1.704 32,-1.704 33,-1.704 34,-1.704 35,-1.704 36,-1.704 37,-1.704 38,-1.704 39,-1.704 40,-1.704 41,-1.704 42,-1.704 43,-1.704 44,-1.704 45,-1.704 46,-1.704 47,-1.704 48,-1.704 49,-1.704 50,-1.704 51,-1.704 52,-1.704 53,-1.704 54,-1.704 55,-1.704 56,-1.704" />
  <line x1="0" y1="0" x2="365" y2="0" style="stroke:grey;stroke-width:1" />
  <line x1="0" y1="-25" x2="365" y2="-25" style="stroke:grey;stroke-width:1" />
</svg>