<svg xmlns="http://www.w3.org/2000/svg" xmlns:xlink="http://www.w3.org/1999/xlink" version="1.1" style="background-color: #e6e6e6; width: 365px;" viewBox="0 -25 365 25" preserveAspectRatio="none">
  <polyline fill="none" stroke="#ff8800" stroke-width="3" points="0,-3.255 1,-3.255 2,-3.255 3,-3.255 4,-3.255 5,-3.255 6,-3.254 7,-3.254 8,-3.254 9,-3.256 10,-3.256 11,-3.257 12,-3.257 13,-3.257 14,-3.257 15,-3.257 16,-3.257 17,-3.257 18,-3.257 19,-3.257 20,-3.257 21,-3.257 22,-3.257 23,-3.257 24,-3.26 25,-3.26 26,-3.26 27,-3.26 28,-3.26 29,-3.262 30,-3.262 31,-3.262 32,-3.262 33,-3.262 34,-3.262 35,-3.262 36,-3.262 37,-3.262" />
  <line x1="0" y1="0" x2="365" y2="0" style="stroke:grey;stroke-width:1" />
  <line x1="0" y1="-25" x2="365" y2="-25" style="stroke:grey;stroke-width:1" />
</svg>