<svg xmlns="http://www.w3.org/2000/svg" xmlns:xlink="http://www.w3.org/1999/xlink" version="1.1" style="background-color: #e6e6e6; width: 365px;" viewBox="0 -25 365 25" preserveAspectRatio="none">
  <polyline fill="none" stroke="#ff8800" stroke-width="3" points="0,-3.255 1,-3.255 2,-3.255 3,-3.255 4,-3.255 5,-3.255 6,-3.254 7,-3.254 8,-3.254 9,-3.256 10,-3.256 11,-3.257 12,-3.257 13,-3.257 14,-3.257 15,-3.257 16,-3.257 17,-3.257 18,-3.257 19,-3.257 20,-3.257 21,-3.257 22,-3.257 23,-3.257 24,-3.26 25,-3.26 26,-3.26 27,-3.26 28,-3.26 29,-3.262 30,-3.262 31,-3.262 32,-3.262 33,-3.262 34,-3.262 35,-3.262 36,-3.262 37,-3.262 38,-3.262 39,-3.262 40,-3.262 41,-3.262 42,-3.263 43,-3.263 44,-3.263 45,-3.267 46,-3.268 47,-3.267 48,-3.267 49,-3.269 50,-3.266 51,-3.266 52,-3.266 53,-3.266 54,-3.266 55,-3.266 56,-3.266 57,-3.266 58,-3.266 59,-3.27 60,-3.27 61,-3.27 62,-3.271 63,-3.271 64,-3.271 65,-3.272 66,-3.272 67,-3.272 68,-3.272 69,-3.272 70,-3.272 71,-3.272 72,-3.272" />
  <line x1="0" y1="0" x2="365" y2="0" style="stroke:grey;stroke-width:1" />
  <line x1="0" y1="-25" x2="365" y2="-25" style="stroke:grey;stroke-width:1" />
</svg>