<svg xmlns="http://www.w3.org/2000/svg" xmlns:xlink="http://www.w3.org/1999/xlink" version="1.1" style="background-color: #e6e6e6; width: 365px;" viewBox="0 -25 365 25" preserveAspectRatio="none">
  <polyline fill="none" stroke="#ff8800" stroke-width="3" points="0,-1.705 1,-1.705 2,-1.705 3,-1.705 4,-1.705 5,-1.705 6,-1.706 7,-1.706 8,-1.706 9,-1.705 10,-1.705 11,-1.705 12,-1.705 13,-1.705 14,-1.705 15,-1.705 16,-1.705 17,-1.705 18,-1.705 19,-1.705 20,-1.705 21,-1.705 22,-1.705 23,-1.705 24,-1.705 25,-1.705 26,-1.704 27,-1.704 28,-1.704 29,-1.704 30,-1.704 31,-1.704 32,-1.704 33,-1.704 34,-1.704 35,-1.704 36,-1.704 37,-1.704 38,-1.704 39,-1.704 40,-1.704 41,-1.704 42,-1.704 43,-1.704 44,-1.704 45,-1.704 46,-1.704 47,-1.704 48,-1.704 49,-1.704 50,-1.704 51,-1.704 52,-1.704 53,-1.704 54,-1.704 55,-1.704 56,-1.704 57,-1.704 58,-1.704 59,-1.704 60,-1.704 61,-1.704 62,-1.704 63,-1.704 64,-1.704 65,-1.704 66,-1.704 67,-1.704 68,-1.704 69,-1.704 70,-1.704 71,-1.704 72,-1.704 73,-1.704 74,-1.704 75,-1.705 76,-1.704 77,-1.704 78,-1.704 79,-1.704 80,-1.704 81,-1.704 82,-1.704 83,-1.704 84,-1.704 85,-1.704 86,-1.704 87,-1.704 88,-1.704 89,-1.704 90,-1.704 91,-1.704 92,-1.704 93,-1.704 94,-1.704 95,-1.704 96,-1.704 97,-1.704 98,-1.704 99,-1.704 100,-1.704 101,-1.704 102,-1.704 103,-1.704 104,-1.704 105,-1.704 106,-1.704 107,-1.704 108,-1.704 109,-1.704 110,-1.704 111,-1.704 112,-1.704 113,-1.704 114,-1.704 115,-1.704 116,-1.704 117,-1.704 118,-1.704 119,-1.704 120,-1.704 121,-1.704 122,-1.704 123,-1.704 124,-1.704 125,-1.704 126,-1.704 127,-1.704 128,-1.704 129,-1.704 130,-1.704 131,-1.704 132,-1.704 133,-1.704" />
  <line x1="0" y1="0" x2="365" y2="0" style="stroke:grey;stroke-width:1" />
  <line x1="0" y1="-25" x2="365" y2="-25" style="stroke:grey;stroke-width:1" />
</svg>