<svg xmlns="http://www.w3.org/2000/svg" xmlns:xlink="http://www.w3.org/1999/xlink" version="1.1" style="background-color: #e6e6e6; width: 365px;" viewBox="0 -250 365 50" preserveAspectRatio="none">
  <polyline fill="none" stroke="#ff8800" stroke-width="3" points="0,-249 1,-249 2,-249 3,-249 4,-249 5,-249 6,-249 7,-249 8,-249 9,-248 10,-248 11,-248 12,-248 13,-248 14,-248 15,-248 16,-248 17,-248 18,-248 19,-248 20,-248 21,-248 22,-248 23,-248 24,-248 25,-248 26,-248 27,-248 28,-248 29,-248 30,-248 31,-248 32,-248 33,-248 34,-248 35,-248 36,-248 37,-248 38,-248 39,-248 40,-248 41,-248 42,-248 43,-248 44,-248 45,-248 46,-248 47,-248 48,-248 49,-248 50,-248 51,-248 52,-248 53,-248 54,-248 55,-248 56,-248 57,-248 58,-248 59,-248 60,-248 61,-248 62,-248 63,-248 64,-248 65,-248 66,-248 67,-248 68,-248 69,-248 70,-248 71,-248 72,-248 73,-248 74,-248 75,-248 76,-248 77,-248 78,-248 79,-248 80,-248 81,-248 82,-248 83,-248 84,-248 85,-248 86,-248 87,-248 88,-248 89,-248 90,-248 91,-248 92,-248 93,-248 94,-248 95,-248 96,-248 97,-248 98,-248 99,-248 100,-248 101,-248 102,-248 103,-248 104,-248 105,-248 106,-248 107,-248 108,-248 109,-248 110,-248 111,-248 112,-248 113,-248 114,-248 115,-248 116,-248 117,-248 118,-248 119,-248 120,-248 121,-248 122,-248 123,-248 124,-248 125,-248 126,-248 127,-248 128,-248 129,-248 130,-248 131,-248 132,-248 133,-248 134,-248 135,-248 136,-248 137,-248" />
  <line x1="0" y1="0" x2="365" y2="0" style="stroke:grey;stroke-width:1" />
  <line x1="0" y1="-25" x2="365" y2="-25" style="stroke:grey;stroke-width:1" />
  <line x1="0" y1="-50" x2="365" y2="-50" style="stroke:grey;stroke-width:1" />
  <line x1="0" y1="-75" x2="365" y2="-75" style="stroke:grey;stroke-width:1" />
  <line x1="0" y1="-100" x2="365" y2="-100" style="stroke:grey;stroke-width:1" />
  <line x1="0" y1="-125" x2="365" y2="-125" style="stroke:grey;stroke-width:1" />
  <line x1="0" y1="-150" x2="365" y2="-150" style="stroke:grey;stroke-width:1" />
  <line x1="0" y1="-175" x2="365" y2="-175" style="stroke:grey;stroke-width:1" />
  <line x1="0" y1="-200" x2="365" y2="-200" style="stroke:grey;stroke-width:1" />
  <line x1="0" y1="-225" x2="365" y2="-225" style="stroke:grey;stroke-width:1" />
  <line x1="0" y1="-250" x2="365" y2="-250" style="stroke:grey;stroke-width:1" />
</svg>